# This file uses centimeters as units for non-parametric coordinates.

mtllib ammo.mtl
g default
v 28.418874 -13.988295 13.612595
v 32.119836 -17.689266 13.612595
v 32.119836 -13.988295 17.313633
v 74.528455 -17.689266 13.612595
v 78.229436 -13.988295 13.612595
v 74.528455 -13.988295 17.313633
v 32.119836 17.596903 13.612595
v 28.418874 13.895912 13.612595
v 32.119836 13.895912 17.313633
v 78.229436 13.895960 13.612595
v 74.528455 17.596951 13.612595
v 74.528455 13.895960 17.313633
v 32.119836 13.895912 -17.972546
v 28.418874 13.895912 -14.271564
v 32.119836 17.596903 -14.271564
v 78.229436 13.895960 -14.271564
v 74.528455 13.895960 -17.972546
v 74.528455 17.596951 -14.271564
v 32.119836 -17.689266 -14.271564
v 28.418874 -13.988295 -14.271564
v 32.119836 -13.988295 -17.972546
v 78.229436 -13.988295 -14.271564
v 74.528455 -17.689266 -14.271564
v 74.528455 -13.988295 -17.972546
v 42.152395 -4.102783 14.127045
v 63.539152 -4.102783 14.127045
v 42.152395 8.454399 14.127045
v 63.539152 8.454399 14.127045
v 42.152395 8.454399 -19.005814
v 63.539152 8.454399 -19.005814
v 42.152395 -4.102783 -19.005814
v 63.539152 -4.102783 -19.005814
v 38.863554 17.689257 4.297390
v 69.843854 17.689257 4.297390
v 38.863554 17.689257 -8.137493
v 69.843854 17.689257 -8.137493
v 38.863554 -3.506813 19.005814
v 69.843854 -3.506813 19.005814
v 38.863554 8.928089 19.005814
v 69.843854 8.928089 19.005814
vt 0.087050 0.726365
vt 0.087050 0.776080
vt 0.087050 0.776080
vt 0.087050 0.726365
vt 0.082688 0.775935
vt 0.049824 0.776685
vt 0.049824 0.726364
vt 0.082688 0.726364
vt 0.049824 0.723036
vt 0.049824 0.723036
vt 0.082688 0.723036
vt 0.082688 0.723036
vt 0.082688 0.780418
vt 0.049824 0.780418
vt 0.049824 0.780418
vt 0.082688 0.780418
vt 0.046234 0.776829
vt 0.045462 0.776789
vt 0.045462 0.726365
vt 0.045048 0.726365
vt 0.049824 0.776789
vt 0.082688 0.775935
vt 0.082688 0.726364
vt 0.049824 0.726364
vt 0.119727 0.744582
vt 0.119727 0.744582
vt 0.089243 0.744582
vt 0.089243 0.744582
vt 0.089243 0.776071
vt 0.119727 0.776071
vt 0.119727 0.747877
vt 0.089243 0.747877
vt 0.119727 0.747877
vt 0.119727 0.776071
vt 0.089243 0.776071
vt 0.089243 0.747877
vt 0.045144 0.775932
vt 0.119727 0.779365
vt 0.079267 0.726212
vt 0.089243 0.779365
vt 0.045144 0.726212
vt 0.089243 0.779365
vt 0.119727 0.779365
vt 0.079267 0.775932
vt 0.045048 0.776080
vt 0.049824 0.780418
vt 0.049824 0.776685
vt 0.049824 0.775935
vt 0.082688 0.776685
vt 0.082688 0.780418
vt 0.087050 0.776080
vt 0.082688 0.775935
vt 0.045462 0.776080
vt 0.049824 0.775652
vt 0.088875 0.722229
vt 0.116398 0.722229
vt 0.116398 0.740605
vt 0.088875 0.740605
vt 0.116398 0.740605
vt 0.088875 0.740605
vt 0.116398 0.722229
vt 0.088875 0.722229
vt 0.122285 0.779406
vt 0.122285 0.734640
vt 0.136595 0.734640
vt 0.136595 0.779406
vt 0.122285 0.779406
vt 0.122285 0.734640
vt 0.136595 0.734640
vt 0.136595 0.779406
vn -0.073800 -0.991120 -0.110613
vn 0.073800 -0.991120 -0.110613
vn 0.073800 -0.991120 0.110613
vn -0.073800 -0.991120 0.110613
vn 0.073802 -0.110615 0.991119
vn 0.073802 0.110615 0.991119
vn -0.073802 0.110615 0.991119
vn -0.073802 -0.110615 0.991119
vn -0.988323 0.107745 0.107746
vn -0.988323 0.107745 -0.107746
vn -0.988323 -0.107746 -0.107746
vn -0.988323 -0.107745 0.107746
vn 0.988323 -0.107746 -0.107746
vn 0.988323 0.107746 -0.107746
vn 0.988323 0.107746 0.107746
vn 0.988323 -0.107746 0.107746
vn 0.073800 0.991120 0.110614
vn 0.073800 0.991120 -0.110614
vn -0.073802 0.991120 -0.110614
vn -0.073802 0.991120 0.110614
vn 0.073800 0.110613 -0.991120
vn 0.073801 -0.110613 -0.991120
vn -0.073800 -0.110613 -0.991120
vn -0.073801 0.110613 -0.991120
vn 0.000000 0.000000 1.000000
vn 0.000000 0.000000 1.000000
vn 0.000000 0.000000 1.000000
vn 0.000000 0.000000 1.000000
vn 0.000000 1.000000 0.000000
vn 0.000000 1.000000 0.000000
vn 0.000000 1.000000 0.000000
vn 0.000000 1.000000 0.000000
vn 0.000000 0.000000 -1.000000
vn 0.000000 0.000000 -1.000000
vn 0.000000 0.000000 -1.000000
vn 0.000000 0.000000 -1.000000
vn 0.000000 -1.000000 0.000000
vn 0.000000 -1.000000 0.000000
vn 0.000000 -1.000000 0.000000
vn 0.000000 -1.000000 0.000000
vn 1.000000 0.000000 0.000000
vn 1.000000 0.000000 0.000000
vn 1.000000 0.000000 0.000000
vn 1.000000 0.000000 0.000000
vn -1.000000 0.000000 0.000000
vn -1.000000 0.000000 0.000000
vn -1.000000 0.000000 0.000000
vn -1.000000 0.000000 0.000000
vn 0.000000 1.000000 0.000000
vn 0.000000 1.000000 0.000000
vn 0.000000 1.000000 0.000000
vn 0.000000 1.000000 0.000000
vn 0.000000 0.000000 1.000000
vn 0.000000 0.000000 1.000000
vn 0.000000 0.000000 1.000000
vn 0.000000 0.000000 1.000000
s 1
g ammo
usemtl lambert3SG
f 19/25/1 23/26/2 4/27/3 2/28/4
f 6/52/5 12/48/6 9/7/7 3/8/8
f 8/29/9 14/30/10 20/31/11 1/32/12
f 22/33/13 16/34/14 10/35/15 5/36/16
f 11/37/17 18/44/18 15/39/19 7/41/20
f 17/54/21 24/22/22 21/23/23 13/24/24
f 2/28/4 1/32/12 20/31/11 19/25/1
f 3/8/8 2/4/4 4/3/3 6/52/5
f 1/12/12 3/8/8 9/7/7 8/9/9
f 5/36/16 4/27/3 23/26/2 22/33/13
f 6/49/5 5/16/16 10/15/15 12/47/6
f 8/29/9 7/40/20 15/43/19 14/30/10
f 7/20/20 9/7/7 12/48/6 11/45/17
f 11/42/17 10/35/15 16/34/14 18/38/18
f 14/10/10 13/24/24 21/23/23 20/11/11
f 13/24/24 15/19/19 18/53/18 17/54/21
f 17/21/21 16/14/14 22/13/13 24/22/22
f 19/1/1 21/23/23 24/22/22 23/2/2
f 1/12/12 2/4/4 3/8/8
f 4/51/3 5/50/16 6/5/5
f 7/20/20 8/9/9 9/7/7
f 10/46/15 11/17/17 12/6/6
f 13/24/24 14/10/10 15/19/19
f 16/14/14 17/21/21 18/18/18
f 19/1/1 20/11/11 21/23/23
f 22/13/13 23/2/2 24/22/22
s off
f 25/55/25 26/56/26 28/57/27 27/58/28
f 27/58/29 28/57/30 30/59/31 29/60/32
f 29/60/33 30/59/34 32/61/35 31/62/36
f 31/62/37 32/61/38 26/56/39 25/55/40
f 26/56/41 32/61/42 30/59/43 28/57/44
f 31/62/45 25/55/46 27/58/47 29/60/48
f 33/63/49 34/64/50 36/65/51 35/66/52
f 37/67/53 38/68/54 40/69/55 39/70/56
